<svg width="70" height="56" viewBox="0 0 70 56" fill="none" xmlns="http://www.w3.org/2000/svg">
<path d="M44.5756 0.223533C46.3956 0.923533 47.3301 3.04103 46.6686 4.95903L29.9106 53.567C29.2456 55.485 27.2401 56.472 25.4236 55.7755C23.6036 55.0755 22.6691 52.958 23.3306 51.04L40.0886 2.43203C40.7536 0.514033 42.7591 -0.472967 44.5756 0.223533ZM8.44856 28.8955L20.8246 41.9645C22.1896 43.4065 22.1896 45.7445 20.8246 47.1865C20.509 47.5278 20.1263 47.8 19.7004 47.9862C19.2746 48.1724 18.8148 48.2686 18.3501 48.2686C17.8853 48.2686 17.4255 48.1724 16.9997 47.9862C16.5739 47.8 16.1911 47.5278 15.8756 47.1865L1.02506 31.51C0.36628 30.7995 0.000244141 29.8663 0.000244141 28.8973C0.000244141 27.9283 0.36628 26.9951 1.02506 26.2845L15.8756 10.6045C16.1911 10.2633 16.5739 9.99105 16.9997 9.80484C17.4255 9.61863 17.8853 9.52251 18.3501 9.52251C18.8148 9.52251 19.2746 9.61863 19.7004 9.80484C20.1263 9.99105 20.509 10.2633 20.8246 10.6045C22.1896 12.05 22.1896 14.3915 20.8246 15.8335L8.44856 28.8955ZM61.5506 28.8955L49.1746 15.8335C48.5158 15.123 48.1497 14.1898 48.1497 13.2208C48.1497 12.2518 48.5158 11.3186 49.1746 10.608C49.4901 10.2668 49.8729 9.99455 50.2987 9.80834C50.7245 9.62213 51.1843 9.52601 51.6491 9.52601C52.1138 9.52601 52.5736 9.62213 52.9994 9.80834C53.4253 9.99455 53.808 10.2668 54.1236 10.608L68.9741 26.2845C70.3391 27.7265 70.3391 30.0645 68.9741 31.51L54.1236 47.183C53.808 47.5243 53.4253 47.7965 52.9994 47.9827C52.5736 48.1689 52.1138 48.2651 51.6491 48.2651C51.1843 48.2651 50.7245 48.1689 50.2987 47.9827C49.8729 47.7965 49.4901 47.5243 49.1746 47.183C48.5168 46.4727 48.1514 45.5402 48.1514 44.572C48.1514 43.6039 48.5168 42.6714 49.1746 41.961L61.5506 28.8955Z" fill="#FF8800"/>
</svg>
